<svg xmlns="http://www.w3.org/2000/svg" xmlns:xlink="http://www.w3.org/1999/xlink" width="596" zoomAndPan="magnify" viewBox="0 0 446.88 245.999995" height="328" preserveAspectRatio="xMidYMid meet" version="1.0"><defs><g/></defs><g fill="#fefefe" fill-opacity="1"><g transform="translate(1.95575, 164.6396)"><g><path d="M 15.722656 0 C 19.195312 0 22.089844 -2.699219 22.1875 -6.464844 L 22.378906 -63.089844 L 22.378906 -63.667969 C 22.285156 -63.765625 22.285156 -63.957031 22.285156 -64.152344 C 22.671875 -68.394531 24.792969 -72.542969 27.878906 -75.535156 C 31.0625 -78.523438 35.210938 -80.261719 39.746094 -80.261719 C 44.664062 -80.261719 49.003906 -78.332031 52.1875 -74.859375 C 55.371094 -71.386719 57.207031 -66.851562 57.207031 -62.125 L 57.207031 -6.558594 C 57.207031 -2.992188 60.003906 -0.0976562 63.574219 -0.0976562 C 67.046875 -0.0976562 70.035156 -2.992188 70.035156 -6.558594 L 70.035156 -63.1875 C 69.9375 -63.28125 69.9375 -63.476562 69.9375 -63.667969 C 70.230469 -68.105469 71.964844 -71.964844 75.339844 -75.339844 C 78.523438 -78.429688 82.671875 -80.164062 87.207031 -80.164062 C 92.125 -80.164062 96.660156 -78.234375 99.84375 -74.859375 C 103.027344 -71.484375 104.957031 -66.851562 104.957031 -62.222656 L 104.957031 -6.464844 C 104.957031 -2.699219 107.851562 0 111.421875 0 C 114.894531 0 117.882812 -2.699219 117.882812 -6.464844 L 117.882812 -63.28125 C 117.882812 -71.484375 114.507812 -79.007812 108.71875 -84.699219 C 103.027344 -90.199219 95.214844 -93.476562 87.109375 -93.476562 C 77.753906 -93.476562 69.070312 -89.039062 63.378906 -81.804688 C 57.496094 -89.039062 48.8125 -93.476562 39.457031 -93.476562 C 31.253906 -93.476562 23.828125 -90.292969 18.136719 -84.601562 C 12.445312 -78.910156 9.261719 -71.386719 9.261719 -63.1875 L 9.261719 -6.464844 C 9.261719 -2.699219 12.15625 0 15.722656 0 Z M 15.722656 0 "/></g></g></g><g fill="#fefefe" fill-opacity="1"><g transform="translate(127.746468, 164.6396)"><g><path d="M 51.320312 1.15625 C 64.152344 1.15625 76.113281 -4.050781 84.699219 -12.636719 C 93.285156 -21.222656 98.398438 -33.089844 98.398438 -45.820312 C 98.398438 -58.652344 93.285156 -70.519531 84.699219 -79.296875 C 76.113281 -87.882812 64.152344 -93.089844 51.320312 -93.089844 C 38.585938 -93.089844 26.914062 -88.074219 18.136719 -79.296875 C 9.355469 -70.710938 4.246094 -58.652344 4.246094 -45.820312 C 4.246094 -33.089844 9.355469 -21.222656 18.136719 -12.636719 C 26.914062 -3.859375 38.585938 1.15625 51.320312 1.15625 Z M 51.320312 -11.671875 C 41.964844 -11.671875 33.378906 -15.339844 27.109375 -21.800781 C 20.835938 -28.070312 17.074219 -36.65625 17.074219 -45.820312 C 17.074219 -55.082031 20.835938 -63.765625 27.109375 -70.035156 C 33.378906 -76.304688 41.964844 -80.066406 51.320312 -80.066406 C 60.679688 -80.066406 69.457031 -76.304688 75.726562 -70.035156 C 81.902344 -63.765625 85.566406 -55.082031 85.566406 -45.820312 C 85.566406 -36.65625 81.902344 -28.070312 75.726562 -21.800781 C 69.457031 -15.339844 60.871094 -11.671875 51.320312 -11.671875 Z M 51.320312 -11.671875 "/></g></g></g><g fill="#fefefe" fill-opacity="1"><g transform="translate(230.481992, 164.6396)"><g><path d="M 55.757812 1.15625 C 68.492188 1.15625 80.453125 -4.050781 89.039062 -12.636719 C 97.625 -21.222656 102.738281 -33.089844 102.738281 -45.917969 C 102.738281 -58.75 97.625 -70.710938 89.039062 -79.296875 C 80.453125 -87.882812 68.589844 -92.996094 55.757812 -92.996094 C 48.136719 -92.996094 40.902344 -90.777344 34.726562 -86.628906 C 28.457031 -82.480469 23.828125 -76.886719 21.414062 -70.421875 L 21.414062 -120.296875 C 21.414062 -124.152344 18.8125 -126.953125 15.050781 -126.953125 C 11.480469 -126.953125 8.585938 -124.058594 8.585938 -120.296875 L 8.585938 -45.820312 C 8.585938 -33.089844 13.699219 -21.222656 22.476562 -12.636719 C 31.0625 -4.050781 43.023438 1.15625 55.757812 1.15625 Z M 55.757812 -11.769531 C 46.402344 -11.769531 37.71875 -15.433594 31.449219 -21.898438 C 25.179688 -28.167969 21.414062 -36.753906 21.414062 -45.917969 C 21.414062 -55.277344 25.179688 -63.863281 31.449219 -70.132812 C 37.71875 -76.402344 46.402344 -80.066406 55.757812 -80.066406 C 65.308594 -80.066406 73.796875 -76.402344 80.066406 -70.132812 C 86.339844 -63.863281 90.003906 -55.277344 90.003906 -45.917969 C 90.003906 -36.753906 86.339844 -28.167969 80.066406 -21.898438 C 73.796875 -15.433594 65.308594 -11.769531 55.757812 -11.769531 Z M 55.757812 -11.769531 "/></g></g></g><g fill="#fefefe" fill-opacity="1"><g transform="translate(337.461988, 164.6396)"><g><path d="M 94.152344 28.746094 C 97.914062 28.746094 100.808594 26.046875 100.808594 22.285156 L 100.808594 -86.628906 C 100.808594 -90.390625 97.820312 -93.285156 94.25 -93.285156 C 90.777344 -93.285156 87.785156 -90.390625 87.785156 -86.628906 L 87.785156 -46.207031 C 87.785156 -37.429688 84.121094 -29.035156 77.945312 -23.152344 C 71.675781 -17.074219 63.1875 -13.503906 54.601562 -13.503906 C 45.820312 -13.503906 37.429688 -17.074219 31.253906 -23.152344 C 25.082031 -29.035156 21.414062 -37.429688 21.414062 -46.207031 L 21.414062 -86.628906 C 21.414062 -90.390625 18.425781 -93.285156 14.953125 -93.285156 C 11.191406 -93.285156 8.296875 -90.390625 8.296875 -86.628906 L 8.296875 -46.691406 C 8.296875 -34.054688 13.3125 -22.574219 21.898438 -13.988281 C 30.386719 -5.5 42.15625 -0.480469 54.601562 -0.480469 C 67.71875 -0.480469 79.296875 -6.753906 87.785156 -16.882812 L 87.785156 22.285156 C 87.785156 26.046875 90.582031 28.746094 94.152344 28.746094 Z M 94.152344 28.746094 "/></g></g></g><g fill="#fefefe" fill-opacity="1"><g transform="translate(7.729835, 224.205018)"><g><path d="M 13.984375 0.3125 C 16.972656 0.3125 19.601562 -0.675781 21.628906 -2.605469 C 22.011719 -2.964844 22.230469 -3.472656 22.230469 -3.953125 C 22.230469 -4.796875 21.578125 -5.472656 20.808594 -5.472656 C 20.300781 -5.472656 20.011719 -5.304688 19.554688 -4.941406 C 17.9375 -3.519531 16.128906 -2.894531 13.984375 -2.894531 C 11.597656 -2.894531 9.476562 -3.785156 7.910156 -5.304688 C 6.339844 -6.824219 5.425781 -8.898438 5.425781 -11.210938 L 5.425781 -19.867188 L 16.058594 -19.867188 C 17 -19.867188 17.699219 -20.542969 17.699219 -21.410156 C 17.699219 -22.300781 16.949219 -23.050781 16.058594 -23.050781 L 5.425781 -23.050781 L 5.425781 -28.570312 C 5.425781 -29.511719 4.652344 -30.210938 3.761719 -30.210938 C 2.894531 -30.210938 2.144531 -29.464844 2.144531 -28.570312 L 2.144531 -11.234375 C 2.144531 -8.027344 3.421875 -5.136719 5.617188 -3.015625 C 7.761719 -0.917969 10.730469 0.3125 13.984375 0.3125 Z M 13.984375 0.3125 "/></g></g></g><g fill="#fefefe" fill-opacity="1"><g transform="translate(31.865488, 224.205018)"><g><path d="M 12.851562 0.289062 C 14.128906 0.289062 15.261719 0.167969 16.300781 -0.0976562 C 17.117188 -0.3125 17.988281 -0.675781 18.925781 -1.207031 C 19.433594 -1.496094 19.699219 -1.929688 19.699219 -2.507812 C 19.699219 -3.375 19 -4.195312 18.132812 -4.195312 C 17.792969 -4.195312 17.457031 -4.097656 17.144531 -3.90625 C 16.394531 -3.496094 15.769531 -3.207031 15.214844 -3.0625 C 14.609375 -2.894531 13.816406 -2.796875 12.851562 -2.796875 C 10.800781 -2.796875 8.871094 -3.570312 7.355469 -4.894531 C 5.882812 -6.21875 4.894531 -8.003906 4.628906 -10.007812 L 23.097656 -10.007812 C 24.039062 -10.007812 24.664062 -10.679688 24.664062 -11.550781 C 24.640625 -14.707031 23.316406 -17.671875 21.167969 -19.820312 C 18.976562 -21.964844 16.007812 -23.265625 12.851562 -23.265625 C 9.667969 -23.265625 6.679688 -21.964844 4.53125 -19.820312 C 2.339844 -17.625 1.0625 -14.660156 1.0625 -11.476562 C 1.0625 -8.292969 2.339844 -5.304688 4.53125 -3.160156 C 6.679688 -1.011719 9.667969 0.289062 12.851562 0.289062 Z M 4.53125 -12.707031 C 4.75 -14.730469 5.738281 -16.636719 7.210938 -17.988281 C 8.726562 -19.359375 10.707031 -20.179688 12.898438 -20.179688 C 15.046875 -20.179688 17.070312 -19.386719 18.613281 -18.035156 C 20.15625 -16.683594 21.121094 -14.828125 21.386719 -12.707031 Z M 4.53125 -12.707031 "/></g></g></g><g fill="#fefefe" fill-opacity="1"><g transform="translate(58.941606, 224.205018)"><g><path d="M 12.804688 0.265625 C 15.863281 0.265625 18.804688 -0.84375 20.734375 -2.84375 C 21.121094 -3.230469 21.3125 -3.664062 21.3125 -4.171875 C 21.3125 -4.605469 21.121094 -4.992188 20.757812 -5.328125 C 20.46875 -5.59375 20.035156 -5.738281 19.722656 -5.738281 C 19.503906 -5.738281 19.242188 -5.667969 18.925781 -5.519531 C 17.722656 -4.582031 16.683594 -3.953125 15.839844 -3.59375 C 14.875 -3.183594 13.816406 -2.988281 12.683594 -2.988281 C 10.296875 -2.988281 8.199219 -3.953125 6.679688 -5.570312 C 5.207031 -7.136719 4.339844 -9.308594 4.339844 -11.523438 C 4.339844 -13.71875 5.230469 -15.839844 6.703125 -17.40625 C 8.246094 -19.023438 10.367188 -19.988281 12.683594 -19.988281 C 14.320312 -19.988281 15.71875 -19.625 17.09375 -18.734375 C 17.238281 -18.660156 17.457031 -18.492188 17.746094 -18.277344 L 18.421875 -17.769531 C 18.976562 -17.40625 19.386719 -17.214844 19.699219 -17.214844 C 20.058594 -17.214844 20.421875 -17.359375 20.734375 -17.625 C 21.121094 -17.9375 21.3125 -18.324219 21.3125 -18.78125 C 21.3125 -19.289062 21.121094 -19.722656 20.734375 -20.132812 C 18.804688 -22.132812 15.863281 -23.242188 12.804688 -23.242188 C 9.523438 -23.242188 6.582031 -21.941406 4.4375 -19.746094 C 2.316406 -17.550781 1.0625 -14.585938 1.0625 -11.332031 C 1.0625 -8.148438 2.316406 -5.257812 4.507812 -3.109375 C 6.65625 -0.988281 9.597656 0.265625 12.804688 0.265625 Z M 12.804688 0.265625 "/></g></g></g><g fill="#fefefe" fill-opacity="1"><g transform="translate(82.715755, 224.205018)"><g><path d="M 3.449219 0 C 4.386719 0 5.015625 -0.652344 5.015625 -1.589844 L 5.015625 -11.933594 C 5.015625 -14.152344 5.835938 -16.226562 7.210938 -17.671875 C 8.632812 -19.144531 10.535156 -20.011719 12.730469 -20.011719 C 14.925781 -20.011719 16.828125 -19.144531 18.25 -17.625 C 19.601562 -16.152344 20.398438 -14.082031 20.398438 -11.863281 L 20.398438 -1.589844 C 20.398438 -0.652344 21.121094 0 22.011719 0 C 22.953125 0 23.605469 -0.652344 23.605469 -1.589844 L 23.605469 -11.984375 C 23.605469 -15.070312 22.472656 -17.890625 20.519531 -19.988281 C 18.515625 -22.039062 15.792969 -23.265625 12.730469 -23.265625 C 9.667969 -23.265625 6.917969 -22.0625 4.917969 -19.964844 C 2.917969 -17.867188 1.785156 -15.019531 1.785156 -11.957031 L 1.785156 -1.589844 C 1.785156 -0.699219 2.554688 0 3.449219 0 Z M 3.449219 0 "/></g></g></g><g fill="#fefefe" fill-opacity="1"><g transform="translate(110.105234, 224.205018)"><g><path d="M 12.828125 0.289062 C 16.035156 0.289062 19.023438 -1.011719 21.167969 -3.160156 C 23.316406 -5.304688 24.59375 -8.269531 24.59375 -11.453125 C 24.59375 -14.660156 23.316406 -17.625 21.167969 -19.820312 C 19.023438 -21.964844 16.035156 -23.265625 12.828125 -23.265625 C 9.644531 -23.265625 6.726562 -22.011719 4.53125 -19.820312 C 2.339844 -17.671875 1.0625 -14.660156 1.0625 -11.453125 C 1.0625 -8.269531 2.339844 -5.304688 4.53125 -3.160156 C 6.726562 -0.964844 9.644531 0.289062 12.828125 0.289062 Z M 12.828125 -2.917969 C 10.488281 -2.917969 8.34375 -3.832031 6.773438 -5.449219 C 5.207031 -7.015625 4.269531 -9.160156 4.269531 -11.453125 C 4.269531 -13.765625 5.207031 -15.9375 6.773438 -17.503906 C 8.34375 -19.070312 10.488281 -20.011719 12.828125 -20.011719 C 15.164062 -20.011719 17.359375 -19.070312 18.925781 -17.503906 C 20.46875 -15.9375 21.386719 -13.765625 21.386719 -11.453125 C 21.386719 -9.160156 20.46875 -7.015625 18.925781 -5.449219 C 17.359375 -3.832031 15.214844 -2.917969 12.828125 -2.917969 Z M 12.828125 -2.917969 "/></g></g></g><g fill="#fefefe" fill-opacity="1"><g transform="translate(137.157283, 224.205018)"><g><path d="M 12.296875 -1.542969 C 12.296875 -2.433594 11.644531 -3.132812 10.707031 -3.132812 L 10.585938 -3.132812 C 7.714844 -3.207031 6.027344 -5.039062 6.027344 -8.199219 L 6.027344 -29.96875 C 6.027344 -30.910156 5.28125 -31.609375 4.386719 -31.609375 C 3.496094 -31.609375 2.820312 -30.910156 2.820312 -29.96875 L 2.820312 -8.148438 C 2.820312 -5.714844 3.617188 -3.664062 5.0625 -2.21875 C 6.511719 -0.773438 8.4375 0.0234375 10.679688 0.0234375 L 10.730469 0.0234375 C 11.667969 0.0234375 12.296875 -0.601562 12.296875 -1.542969 Z M 12.296875 -1.542969 "/></g></g></g><g fill="#fefefe" fill-opacity="1"><g transform="translate(151.33876, 224.205018)"><g><path d="M 12.828125 0.289062 C 16.035156 0.289062 19.023438 -1.011719 21.167969 -3.160156 C 23.316406 -5.304688 24.59375 -8.269531 24.59375 -11.453125 C 24.59375 -14.660156 23.316406 -17.625 21.167969 -19.820312 C 19.023438 -21.964844 16.035156 -23.265625 12.828125 -23.265625 C 9.644531 -23.265625 6.726562 -22.011719 4.53125 -19.820312 C 2.339844 -17.671875 1.0625 -14.660156 1.0625 -11.453125 C 1.0625 -8.269531 2.339844 -5.304688 4.53125 -3.160156 C 6.726562 -0.964844 9.644531 0.289062 12.828125 0.289062 Z M 12.828125 -2.917969 C 10.488281 -2.917969 8.34375 -3.832031 6.773438 -5.449219 C 5.207031 -7.015625 4.269531 -9.160156 4.269531 -11.453125 C 4.269531 -13.765625 5.207031 -15.9375 6.773438 -17.503906 C 8.34375 -19.070312 10.488281 -20.011719 12.828125 -20.011719 C 15.164062 -20.011719 17.359375 -19.070312 18.925781 -17.503906 C 20.46875 -15.9375 21.386719 -13.765625 21.386719 -11.453125 C 21.386719 -9.160156 20.46875 -7.015625 18.925781 -5.449219 C 17.359375 -3.832031 15.214844 -2.917969 12.828125 -2.917969 Z M 12.828125 -2.917969 "/></g></g></g><g fill="#fefefe" fill-opacity="1"><g transform="translate(178.390801, 224.205018)"><g><path d="M 6.917969 10.152344 C 7.257812 10.152344 7.570312 10.03125 7.882812 9.789062 C 8.367188 9.425781 8.96875 9.160156 9.667969 8.992188 C 10.222656 8.871094 10.777344 8.800781 11.332031 8.800781 C 12.054688 8.800781 12.875 8.871094 13.765625 8.992188 C 14.585938 9.136719 15.359375 9.210938 16.082031 9.210938 C 18.226562 9.1875 20.300781 8.390625 21.820312 6.96875 C 23.4375 5.449219 24.351562 3.328125 24.351562 0.699219 C 24.351562 -1.589844 23.796875 -3.328125 22.472656 -4.75 C 23.894531 -6.773438 24.59375 -9.015625 24.59375 -11.453125 C 24.59375 -14.660156 23.316406 -17.625 21.167969 -19.820312 C 19.023438 -21.964844 16.035156 -23.265625 12.828125 -23.265625 C 9.644531 -23.265625 6.726562 -22.011719 4.53125 -19.820312 C 2.339844 -17.671875 1.0625 -14.660156 1.0625 -11.453125 C 1.0625 -8.269531 2.339844 -5.304688 4.53125 -3.160156 C 6.726562 -0.964844 9.644531 0.289062 12.828125 0.289062 C 15.601562 0.289062 18.203125 -0.652344 20.253906 -2.316406 C 20.519531 -1.929688 20.734375 -1.566406 20.878906 -1.207031 C 21.074219 -0.652344 21.167969 -0.0234375 21.167969 0.699219 C 21.167969 4.074219 18.902344 5.980469 15.019531 5.980469 C 14.371094 5.980469 13.71875 5.957031 13.066406 5.90625 C 12.417969 5.859375 11.765625 5.835938 11.113281 5.835938 C 10.175781 5.835938 8.753906 6.003906 7.59375 6.390625 C 6.003906 6.894531 5.207031 7.617188 5.207031 8.558594 C 5.207031 9.425781 6.050781 10.152344 6.917969 10.152344 Z M 12.828125 -2.917969 C 10.488281 -2.917969 8.34375 -3.832031 6.773438 -5.449219 C 5.207031 -7.015625 4.269531 -9.160156 4.269531 -11.453125 C 4.269531 -13.765625 5.207031 -15.9375 6.773438 -17.503906 C 8.34375 -19.070312 10.488281 -20.011719 12.828125 -20.011719 C 15.164062 -20.011719 17.359375 -19.070312 18.925781 -17.503906 C 20.496094 -15.9375 21.410156 -13.765625 21.410156 -11.453125 C 21.410156 -9.160156 20.496094 -7.015625 18.925781 -5.449219 C 17.359375 -3.832031 15.214844 -2.917969 12.828125 -2.917969 Z M 12.828125 -2.917969 "/></g></g></g><g fill="#fefefe" fill-opacity="1"><g transform="translate(205.466914, 224.205018)"><g><path d="M 4.097656 -26.546875 C 5.183594 -26.546875 6.050781 -27.414062 6.050781 -28.476562 C 6.050781 -29.558594 5.183594 -30.402344 4.097656 -30.402344 C 3.015625 -30.402344 2.171875 -29.558594 2.171875 -28.476562 C 2.171875 -27.414062 3.015625 -26.546875 4.097656 -26.546875 Z M 4.097656 0.121094 C 4.96875 0.121094 5.691406 -0.601562 5.691406 -1.496094 L 5.691406 -21.628906 C 5.691406 -22.566406 5.039062 -23.265625 4.097656 -23.265625 C 3.207031 -23.265625 2.460938 -22.566406 2.460938 -21.628906 L 2.460938 -1.496094 C 2.460938 -0.601562 3.207031 0.121094 4.097656 0.121094 Z M 4.097656 0.121094 "/></g></g></g><g fill="#fefefe" fill-opacity="1"><g transform="translate(215.020772, 224.205018)"><g><path d="M 12.828125 0.289062 C 16.128906 0.289062 19.023438 -0.988281 21.21875 -3.277344 L 21.242188 -1.542969 C 21.242188 -0.578125 21.867188 0.121094 22.808594 0.121094 C 23.75 0.121094 24.472656 -0.601562 24.472656 -1.542969 L 24.472656 -11.453125 C 24.472656 -14.660156 23.21875 -17.671875 21.097656 -19.820312 C 18.949219 -22.011719 16.035156 -23.265625 12.828125 -23.265625 C 9.644531 -23.265625 6.726562 -22.011719 4.582031 -19.820312 C 2.433594 -17.625 1.179688 -14.660156 1.179688 -11.453125 C 1.179688 -8.269531 2.433594 -5.304688 4.582031 -3.160156 C 6.726562 -0.964844 9.644531 0.289062 12.828125 0.289062 Z M 12.828125 -2.917969 C 10.488281 -2.917969 8.390625 -3.832031 6.847656 -5.449219 C 5.304688 -7.015625 4.414062 -9.160156 4.414062 -11.453125 C 4.414062 -13.765625 5.304688 -15.9375 6.847656 -17.503906 C 8.390625 -19.070312 10.488281 -20.011719 12.828125 -20.011719 C 15.214844 -20.011719 17.3125 -19.070312 18.855469 -17.503906 C 20.375 -15.960938 21.242188 -13.765625 21.242188 -11.453125 C 21.242188 -9.160156 20.375 -7.015625 18.855469 -5.449219 C 17.335938 -3.832031 15.214844 -2.917969 12.828125 -2.917969 Z M 12.828125 -2.917969 "/></g></g></g><g fill="#fefefe" fill-opacity="1"><g transform="translate(243.133309, 224.205018)"><g/></g></g><g fill="#fefefe" fill-opacity="1"><g transform="translate(255.627634, 224.205018)"><g><path d="M 3.929688 0 C 4.796875 0 5.519531 -0.675781 5.546875 -1.617188 L 5.59375 -15.769531 L 5.59375 -15.914062 C 5.570312 -15.9375 5.570312 -15.984375 5.570312 -16.035156 C 5.667969 -17.09375 6.195312 -18.132812 6.96875 -18.878906 C 7.761719 -19.625 8.800781 -20.058594 9.933594 -20.058594 C 11.164062 -20.058594 12.25 -19.578125 13.042969 -18.710938 C 13.839844 -17.84375 14.296875 -16.707031 14.296875 -15.527344 L 14.296875 -1.640625 C 14.296875 -0.746094 14.996094 -0.0234375 15.890625 -0.0234375 C 16.757812 -0.0234375 17.503906 -0.746094 17.503906 -1.640625 L 17.503906 -15.792969 C 17.480469 -15.816406 17.480469 -15.863281 17.480469 -15.914062 C 17.550781 -17.023438 17.988281 -17.988281 18.832031 -18.832031 C 19.625 -19.601562 20.664062 -20.035156 21.796875 -20.035156 C 23.027344 -20.035156 24.160156 -19.554688 24.953125 -18.710938 C 25.75 -17.867188 26.234375 -16.707031 26.234375 -15.550781 L 26.234375 -1.617188 C 26.234375 -0.675781 26.957031 0 27.847656 0 C 28.714844 0 29.464844 -0.675781 29.464844 -1.617188 L 29.464844 -15.816406 C 29.464844 -17.867188 28.621094 -19.746094 27.171875 -21.167969 C 25.75 -22.542969 23.796875 -23.363281 21.773438 -23.363281 C 19.433594 -23.363281 17.261719 -22.253906 15.839844 -20.445312 C 14.371094 -22.253906 12.199219 -23.363281 9.859375 -23.363281 C 7.8125 -23.363281 5.957031 -22.566406 4.53125 -21.144531 C 3.109375 -19.722656 2.316406 -17.84375 2.316406 -15.792969 L 2.316406 -1.617188 C 2.316406 -0.675781 3.039062 0 3.929688 0 Z M 3.929688 0 "/></g></g></g><g fill="#fefefe" fill-opacity="1"><g transform="translate(288.440065, 224.205018)"><g><path d="M 12.828125 0.289062 C 16.128906 0.289062 19.023438 -0.988281 21.21875 -3.277344 L 21.242188 -1.542969 C 21.242188 -0.578125 21.867188 0.121094 22.808594 0.121094 C 23.75 0.121094 24.472656 -0.601562 24.472656 -1.542969 L 24.472656 -11.453125 C 24.472656 -14.660156 23.21875 -17.671875 21.097656 -19.820312 C 18.949219 -22.011719 16.035156 -23.265625 12.828125 -23.265625 C 9.644531 -23.265625 6.726562 -22.011719 4.582031 -19.820312 C 2.433594 -17.625 1.179688 -14.660156 1.179688 -11.453125 C 1.179688 -8.269531 2.433594 -5.304688 4.582031 -3.160156 C 6.726562 -0.964844 9.644531 0.289062 12.828125 0.289062 Z M 12.828125 -2.917969 C 10.488281 -2.917969 8.390625 -3.832031 6.847656 -5.449219 C 5.304688 -7.015625 4.414062 -9.160156 4.414062 -11.453125 C 4.414062 -13.765625 5.304688 -15.9375 6.847656 -17.503906 C 8.390625 -19.070312 10.488281 -20.011719 12.828125 -20.011719 C 15.214844 -20.011719 17.3125 -19.070312 18.855469 -17.503906 C 20.375 -15.960938 21.242188 -13.765625 21.242188 -11.453125 C 21.242188 -9.160156 20.375 -7.015625 18.855469 -5.449219 C 17.335938 -3.832031 15.214844 -2.917969 12.828125 -2.917969 Z M 12.828125 -2.917969 "/></g></g></g><g fill="#fefefe" fill-opacity="1"><g transform="translate(316.552602, 224.205018)"><g><path d="M 3.808594 0 C 4.675781 0 5.351562 -0.675781 5.351562 -1.617188 L 5.351562 -10.96875 C 5.351562 -13.40625 6.367188 -15.746094 8.027344 -17.40625 C 9.691406 -19.070312 11.957031 -20.058594 14.347656 -20.058594 L 14.539062 -20.058594 C 15.503906 -20.058594 16.203125 -20.710938 16.203125 -21.652344 C 16.203125 -22.617188 15.574219 -23.265625 14.539062 -23.265625 L 14.347656 -23.265625 C 11.066406 -23.265625 8.027344 -21.941406 5.738281 -19.648438 C 3.496094 -17.359375 2.144531 -14.273438 2.144531 -10.96875 L 2.144531 -1.617188 C 2.144531 -0.675781 2.917969 0 3.808594 0 Z M 3.808594 0 "/></g></g></g><g fill="#fefefe" fill-opacity="1"><g transform="translate(334.662704, 224.205018)"><g><path d="M 4.605469 -27.246094 C 4.773438 -27.246094 4.917969 -27.269531 5.085938 -27.316406 L 10.222656 -29.753906 C 10.921875 -29.96875 11.378906 -30.574219 11.378906 -31.273438 C 11.378906 -32.210938 10.632812 -32.933594 9.765625 -32.933594 C 9.597656 -32.933594 9.453125 -32.910156 9.308594 -32.863281 L 4.195312 -30.402344 C 3.449219 -30.1875 3.015625 -29.558594 3.015625 -28.859375 C 3.015625 -27.921875 3.738281 -27.246094 4.605469 -27.246094 Z M 4.96875 0 C 5.835938 0 6.582031 -0.699219 6.582031 -1.640625 L 6.582031 -21.601562 C 6.582031 -22.542969 5.882812 -23.265625 4.992188 -23.265625 C 4.050781 -23.265625 3.328125 -22.542969 3.328125 -21.601562 L 3.328125 -1.640625 C 3.328125 -0.699219 4.074219 0 4.96875 0 Z M 4.96875 0 "/></g></g></g><g fill="#fefefe" fill-opacity="1"><g transform="translate(345.903715, 224.205018)"><g><path d="M 13.984375 0.3125 C 16.972656 0.3125 19.601562 -0.675781 21.628906 -2.605469 C 22.011719 -2.964844 22.230469 -3.472656 22.230469 -3.953125 C 22.230469 -4.796875 21.578125 -5.472656 20.808594 -5.472656 C 20.300781 -5.472656 20.011719 -5.304688 19.554688 -4.941406 C 17.9375 -3.519531 16.128906 -2.894531 13.984375 -2.894531 C 11.597656 -2.894531 9.476562 -3.785156 7.910156 -5.304688 C 6.339844 -6.824219 5.425781 -8.898438 5.425781 -11.210938 L 5.425781 -19.867188 L 16.058594 -19.867188 C 17 -19.867188 17.699219 -20.542969 17.699219 -21.410156 C 17.699219 -22.300781 16.949219 -23.050781 16.058594 -23.050781 L 5.425781 -23.050781 L 5.425781 -28.570312 C 5.425781 -29.511719 4.652344 -30.210938 3.761719 -30.210938 C 2.894531 -30.210938 2.144531 -29.464844 2.144531 -28.570312 L 2.144531 -11.234375 C 2.144531 -8.027344 3.421875 -5.136719 5.617188 -3.015625 C 7.761719 -0.917969 10.730469 0.3125 13.984375 0.3125 Z M 13.984375 0.3125 "/></g></g></g><g fill="#fefefe" fill-opacity="1"><g transform="translate(370.039361, 224.205018)"><g><path d="M 4.097656 -26.546875 C 5.183594 -26.546875 6.050781 -27.414062 6.050781 -28.476562 C 6.050781 -29.558594 5.183594 -30.402344 4.097656 -30.402344 C 3.015625 -30.402344 2.171875 -29.558594 2.171875 -28.476562 C 2.171875 -27.414062 3.015625 -26.546875 4.097656 -26.546875 Z M 4.097656 0.121094 C 4.96875 0.121094 5.691406 -0.601562 5.691406 -1.496094 L 5.691406 -21.628906 C 5.691406 -22.566406 5.039062 -23.265625 4.097656 -23.265625 C 3.207031 -23.265625 2.460938 -22.566406 2.460938 -21.628906 L 2.460938 -1.496094 C 2.460938 -0.601562 3.207031 0.121094 4.097656 0.121094 Z M 4.097656 0.121094 "/></g></g></g><g fill="#fefefe" fill-opacity="1"><g transform="translate(379.59322, 224.205018)"><g><path d="M 3.929688 0 C 4.796875 0 5.519531 -0.675781 5.546875 -1.617188 L 5.59375 -15.769531 L 5.59375 -15.914062 C 5.570312 -15.9375 5.570312 -15.984375 5.570312 -16.035156 C 5.667969 -17.09375 6.195312 -18.132812 6.96875 -18.878906 C 7.761719 -19.625 8.800781 -20.058594 9.933594 -20.058594 C 11.164062 -20.058594 12.25 -19.578125 13.042969 -18.710938 C 13.839844 -17.84375 14.296875 -16.707031 14.296875 -15.527344 L 14.296875 -1.640625 C 14.296875 -0.746094 14.996094 -0.0234375 15.890625 -0.0234375 C 16.757812 -0.0234375 17.503906 -0.746094 17.503906 -1.640625 L 17.503906 -15.792969 C 17.480469 -15.816406 17.480469 -15.863281 17.480469 -15.914062 C 17.550781 -17.023438 17.988281 -17.988281 18.832031 -18.832031 C 19.625 -19.601562 20.664062 -20.035156 21.796875 -20.035156 C 23.027344 -20.035156 24.160156 -19.554688 24.953125 -18.710938 C 25.75 -17.867188 26.234375 -16.707031 26.234375 -15.550781 L 26.234375 -1.617188 C 26.234375 -0.675781 26.957031 0 27.847656 0 C 28.714844 0 29.464844 -0.675781 29.464844 -1.617188 L 29.464844 -15.816406 C 29.464844 -17.867188 28.621094 -19.746094 27.171875 -21.167969 C 25.75 -22.542969 23.796875 -23.363281 21.773438 -23.363281 C 19.433594 -23.363281 17.261719 -22.253906 15.839844 -20.445312 C 14.371094 -22.253906 12.199219 -23.363281 9.859375 -23.363281 C 7.8125 -23.363281 5.957031 -22.566406 4.53125 -21.144531 C 3.109375 -19.722656 2.316406 -17.84375 2.316406 -15.792969 L 2.316406 -1.617188 C 2.316406 -0.675781 3.039062 0 3.929688 0 Z M 3.929688 0 "/></g></g></g><g fill="#fefefe" fill-opacity="1"><g transform="translate(412.405651, 224.205018)"><g><path d="M 12.828125 0.289062 C 16.128906 0.289062 19.023438 -0.988281 21.21875 -3.277344 L 21.242188 -1.542969 C 21.242188 -0.578125 21.867188 0.121094 22.808594 0.121094 C 23.75 0.121094 24.472656 -0.601562 24.472656 -1.542969 L 24.472656 -11.453125 C 24.472656 -14.660156 23.21875 -17.671875 21.097656 -19.820312 C 18.949219 -22.011719 16.035156 -23.265625 12.828125 -23.265625 C 9.644531 -23.265625 6.726562 -22.011719 4.582031 -19.820312 C 2.433594 -17.625 1.179688 -14.660156 1.179688 -11.453125 C 1.179688 -8.269531 2.433594 -5.304688 4.582031 -3.160156 C 6.726562 -0.964844 9.644531 0.289062 12.828125 0.289062 Z M 12.828125 -2.917969 C 10.488281 -2.917969 8.390625 -3.832031 6.847656 -5.449219 C 5.304688 -7.015625 4.414062 -9.160156 4.414062 -11.453125 C 4.414062 -13.765625 5.304688 -15.9375 6.847656 -17.503906 C 8.390625 -19.070312 10.488281 -20.011719 12.828125 -20.011719 C 15.214844 -20.011719 17.3125 -19.070312 18.855469 -17.503906 C 20.375 -15.960938 21.242188 -13.765625 21.242188 -11.453125 C 21.242188 -9.160156 20.375 -7.015625 18.855469 -5.449219 C 17.335938 -3.832031 15.214844 -2.917969 12.828125 -2.917969 Z M 12.828125 -2.917969 "/></g></g></g></svg>